<svg xmlns="http://www.w3.org/2000/svg" viewBox="0 -0.5 640 360" shape-rendering="crispEdges">
<metadata>Made with Pixels to Svg https://codepen.io/shshaw/pen/XbxvNj</metadata>
<path stroke="#305182" d="M304 104h7M304 105h1M310 105h2M304 106h1M311 106h2M301 107h4M312 107h3M300 108h2M314 108h2M300 109h1M315 109h1M300 110h1M315 110h2M297 111h4M315 111h3M297 112h5M307 112h2M315 112h3M296 113h5M306 113h1M308 113h1M316 113h3M296 114h1M300 114h1M305 114h1M308 114h1M318 114h2M296 115h2M308 115h1M319 115h1M295 116h3M305 116h2M308 116h2M317 116h3M294 117h4M305 117h2M309 117h1M318 117h3M294 118h6M305 118h1M308 118h1M318 118h1M320 118h1M294 119h6M305 119h1M308 119h1M318 119h4M293 120h7M305 120h2M308 120h1M318 120h1M321 120h2M293 121h1M295 121h3M317 121h2M322 121h1M293 122h1M295 122h1M297 122h1M305 122h1M322 122h1M293 123h1M295 123h1M297 123h1M305 123h1M322 123h1M293 124h1M296 124h2M305 124h1M307 124h2M322 124h1M292 125h2M296 125h1M305 125h1M307 125h2M322 125h1M292 126h1M296 126h1M305 126h1M307 126h2M322 126h1M292 127h1M305 127h1M307 127h2M316 127h1M318 127h1M322 127h2M291 128h2M305 128h2M308 128h1M316 128h2M323 128h1M291 129h1M305 129h2M308 129h1M316 129h1M318 129h1M323 129h1M291 130h1M305 130h2M308 130h1M316 130h1M318 130h2M323 130h1M291 131h1M297 131h4M305 131h2M308 131h1M315 131h1M317 131h3M323 131h1M291 132h1M297 132h1M300 132h1M305 132h2M308 132h1M315 132h3M319 132h1M322 132h2M291 133h1M297 133h2M300 133h1M305 133h2M308 133h1M315 133h1M319 133h1M322 133h1M291 134h1M296 134h1M298 134h1M300 134h1M306 134h1M308 134h1M314 134h2M319 134h2M322 134h1M291 135h2M294 135h1M297 135h2M300 135h1M306 135h2M313 135h2M320 135h3M292 136h1M294 136h1M296 136h2M300 136h1M306 136h2M313 136h1M292 137h4M297 137h1M300 137h2M307 137h1M312 137h2M293 138h1M295 138h3M301 138h1M311 138h2M293 139h1M295 139h1M301 139h1M311 139h2M293 140h3M301 140h3M312 140h1M303 141h1M312 141h2M303 142h1M309 142h1M311 142h1M313 142h2M303 143h2M312 143h1M314 143h2M304 144h1M310 144h1M313 144h1M315 144h1M304 145h3M310 145h1M315 145h1M306 146h1M310 146h2M315 146h8M362 146h9M306 147h4M312 147h3M320 147h1M322 147h2M359 147h4M370 147h3M309 148h1M312 148h2M323 148h4M357 148h3M372 148h2M309 149h2M326 149h3M349 149h11M373 149h3M282 150h6M308 150h3M328 150h3M348 150h2M376 150h1M278 151h6M287 151h1M308 151h1M330 151h1M347 151h2M376 151h1M272 152h7M280 152h4M285 152h3M307 152h2M330 152h2M347 152h1M355 152h1M362 152h1M369 152h1M376 152h1M268 153h7M284 153h8M307 153h1M331 153h1M347 153h1M351 153h1M360 153h10M376 153h1M268 154h1M271 154h2M289 154h1M291 154h1M306 154h2M331 154h3M347 154h4M360 154h8M376 154h1M267 155h2M290 155h2M306 155h1M316 155h3M330 155h1M333 155h2M349 155h4M359 155h4M376 155h1M265 156h3M289 156h4M306 156h2M316 156h1M318 156h2M328 156h1M334 156h4M349 156h1M358 156h4M375 156h2M265 157h1M292 157h1M307 157h1M316 157h1M319 157h4M337 157h1M348 157h2M355 157h1M357 157h3M373 157h3M265 158h1M273 158h5M281 158h1M292 158h2M307 158h1M316 158h1M322 158h1M336 158h2M347 158h2M355 158h3M373 158h1M265 159h1M273 159h11M293 159h4M307 159h1M315 159h2M322 159h16M347 159h1M355 159h3M372 159h2M265 160h1M276 160h4M283 160h6M294 160h4M307 160h2M315 160h1M345 160h3M353 160h3M370 160h3M265 161h1M279 161h4M284 161h4M294 161h5M308 161h1M315 161h1M344 161h2M351 161h3M366 161h5M265 162h1M283 162h6M294 162h5M308 162h1M315 162h1M344 162h1M350 162h3M363 162h4M265 163h2M268 163h2M295 163h4M308 163h1M313 163h3M344 163h3M348 163h4M361 163h3M365 163h1M266 164h5M288 164h1M290 164h2M296 164h3M308 164h1M313 164h1M344 164h2M349 164h2M358 164h3M364 164h3M268 165h2M289 165h1M291 165h2M296 165h3M308 165h1M311 165h1M313 165h1M344 165h1M348 165h2M355 165h5M366 165h4M268 166h3M292 166h2M298 166h1M308 166h2M312 166h2M344 166h1M348 166h1M355 166h3M366 166h2M369 166h2M270 167h1M275 167h5M293 167h1M298 167h1M309 167h1M312 167h1M343 167h2M355 167h2M370 167h1M270 168h3M274 168h5M283 168h4M294 168h1M298 168h1M309 168h1M312 168h1M343 168h1M346 168h2M354 168h1M369 168h2M272 169h3M276 169h3M282 169h1M284 169h7M295 169h1M298 169h1M309 169h1M312 169h1M343 169h1M347 169h1M353 169h2M368 169h2M274 170h2M284 170h8M297 170h2M309 170h1M312 170h1M343 170h1M346 170h2M351 170h1M353 170h1M366 170h3M275 171h3M283 171h2M286 171h8M297 171h3M309 171h4M343 171h1M345 171h3M350 171h4M363 171h4M277 172h4M284 172h1M293 172h1M299 172h1M343 172h2M346 172h2M350 172h1M352 172h1M361 172h3M280 173h5M286 173h12M299 173h1M344 173h2M347 173h1M350 173h1M352 173h1M360 173h2M285 174h2M294 174h4M299 174h3M344 174h1M346 174h2M350 174h1M352 174h1M359 174h2M283 175h3M301 175h1M344 175h4M350 175h3M358 175h5M283 176h1M301 176h1M346 176h2M362 176h3M283 177h1M301 177h2M346 177h3M354 177h1M364 177h3M283 178h7M294 178h4M302 178h1M347 178h12M366 178h3M289 179h7M302 179h1M358 179h2M368 179h3M293 180h1M302 180h1M359 180h1M370 180h5M292 181h2M302 181h1M359 181h3M374 181h1M292 182h1M302 182h1M361 182h3M373 182h2M292 183h1M301 183h2M363 183h11M292 184h2M300 184h2M293 185h1M299 185h2M293 186h2M298 186h2M294 187h2M298 187h1M295 188h2M298 188h1M296 189h3" />
<path stroke="#4b7fa1" d="M305 105h2M308 105h1M303 108h1M312 108h1M302 109h1M313 109h1M301 110h1" />
<path stroke="#426f96" d="M307 105h1M310 107h1M300 126h1" />
<path stroke="rgba(54,92,137,0.9725490196078431)" d="M309 105h1" />
<path stroke="#6cb8c8" d="M305 106h1M304 108h1M309 108h1M311 109h2" />
<path stroke="#5794b0" d="M306 106h1M305 107h1M307 107h3M310 108h2M303 109h1M312 110h1" />
<path stroke="#416e96" d="M307 106h1" />
<path stroke="#4a7da0" d="M308 106h1" />
<path stroke="rgba(162,255,243,0.6901960784313725)" d="M309 106h1M317 124h1M317 125h1M318 126h1M317 127h1M318 128h1M317 129h1M319 129h1M298 130h2M317 130h1M316 131h1M320 131h1M320 132h1M320 133h1M295 134h1M297 134h1M321 134h1M295 135h2M295 136h1M296 137h1M294 138h1M294 139h1" />
<path stroke="rgba(48,81,130,0.7137254901960784)" d="M310 106h1M313 108h1M297 114h1M318 115h1M304 142h1" />
<path stroke="#4588ab" d="M306 107h1M305 108h2M308 108h1M304 109h1M309 109h2M311 110h1M313 110h1M316 117h1M316 118h1M313 122h1M313 123h1" />
<path stroke="rgba(73,119,155,0.9098039215686274)" d="M311 107h1" />
<path stroke="#3f779e" d="M302 108h1M301 109h1M314 109h1M314 110h1M315 113h1M298 115h2M298 116h2M317 120h1M300 121h2M316 121h1M298 122h2M301 122h1M298 123h2M301 123h1M298 124h2M298 125h2M316 125h1M312 134h1M303 137h1M303 138h2M303 139h2M310 142h1M311 144h1M311 145h2M312 146h1" />
<path stroke="#50a5c1" d="M307 108h1M305 109h1M303 110h2M301 111h1M303 111h2M311 111h1M313 111h2M313 112h2M315 114h1M300 115h1M315 115h1M300 116h1M315 116h1M315 117h1M315 118h1M316 120h1" />
<path stroke="#61d3e3" d="M306 109h3M305 110h3M310 110h1M302 111h1M312 111h1M302 112h1M301 113h1M313 113h2M301 114h1M314 114h1M298 117h2M316 119h1M300 120h1M310 141h1M310 143h1M305 144h1M307 146h1M313 146h1M367 147h1M360 148h2M368 148h1M371 148h1M360 149h4M311 150h1M359 150h1M283 153h1M317 153h1M357 153h1M269 154h1M279 154h2M317 154h1M355 154h3M280 155h1M287 155h1M353 155h1M355 155h3M280 156h2M286 156h1M331 156h2M353 156h3M270 157h10M281 157h4M333 157h1M353 157h1M269 158h4M282 158h2M287 158h1M289 158h1M332 158h1M353 158h1M269 159h3M284 159h6M291 159h2M269 160h7M289 160h5M351 160h1M271 161h7M288 161h1M291 161h3M272 162h1M274 162h6M292 162h2M314 162h1M293 163h2M347 163h1M293 164h3M312 164h1M347 164h1M351 164h1M294 165h2M309 165h1M312 165h1M294 166h4M311 166h1M347 166h1M358 166h1M362 166h1M365 166h1M368 166h1M295 167h3M311 167h1M346 167h1M296 168h1M368 168h1M344 171h1M298 172h1M353 172h1M298 173h1M298 174h1M345 174h1M300 175h1M284 176h3M348 176h2M286 177h1M352 177h1M355 177h1M301 178h1M373 181h1M293 183h1M300 183h1M299 184h1M297 185h2M296 186h2" />
<path stroke="#3a6a95" d="M302 110h1M298 114h2M316 115h1M316 116h1M317 117h1M317 118h1M317 119h1M300 125h1" />
<path stroke="#4192c3" d="M308 110h1M300 118h1M319 118h1M313 126h1M322 128h1M322 129h1M311 130h1M311 131h1M322 131h1M321 133h1M306 140h1M306 141h2M309 141h1M307 142h1M313 145h1M310 147h1M350 150h3M356 150h1M350 151h1M279 152h1M349 152h1M277 153h1M348 153h2M268 156h1M291 157h1M349 158h1M348 159h1M267 161h1M346 161h1M345 162h1M281 163h1M273 164h1M271 166h1M361 166h1M285 167h1M354 167h1M273 168h1M289 168h2M353 168h1M275 169h1M276 170h1M296 185h1" />
<path stroke="#a2fff3" d="M309 110h1M305 111h6M303 112h4M309 112h4M302 113h4M309 113h4M303 114h2M309 114h5M302 115h1M309 115h3M313 115h2M311 116h1M313 116h1M303 119h1M310 119h2M304 120h1M293 129h1M292 132h1M295 132h1M292 133h4M292 134h3M293 135h1M293 136h1M307 140h1M374 150h2M349 151h1M284 152h1M348 152h1M275 153h2M350 153h1M358 153h1M270 154h1M273 154h6M282 154h1M288 154h1M270 155h10M282 155h4M331 155h2M269 156h11M282 156h4M288 156h1M333 156h1M352 156h1M269 157h1M285 157h6M334 157h3M352 157h1M354 157h1M268 158h1M278 158h1M284 158h3M288 158h1M290 158h2M333 158h3M351 158h2M268 159h1M272 159h1M290 159h1M351 159h2M268 160h1M349 160h2M268 161h3M278 161h1M289 161h2M349 161h1M268 162h4M273 162h1M289 162h3M348 162h1M270 163h7M292 163h1M364 163h1M271 164h2M274 164h1M292 164h1M346 164h1M348 164h1M363 164h1M272 165h1M277 165h2M293 165h1M345 165h2M362 165h4M272 166h1M310 166h1M345 166h2M363 166h2M310 167h1M345 167h1M349 167h1M358 167h1M361 167h1M365 167h5M310 168h2M344 168h1M348 168h1M358 168h1M366 168h2M310 169h2M344 169h1M357 169h1M367 169h1M310 170h2M344 170h1M281 171h1M281 172h1M283 172h1M284 177h2M366 179h2M367 180h3M369 181h4M365 182h3M369 182h4M295 186h1M296 187h2M297 188h1" />
<path stroke="#36598d" d="M307 113h1M306 114h2M305 115h3M307 116h1M307 119h1M305 121h3M296 122h1M306 122h2M296 123h1M306 123h2M306 124h1M306 125h1M306 126h1M306 127h1M307 128h1M307 129h1M307 131h1M307 132h1M307 133h1M307 134h1M308 135h1M308 136h1M308 137h1M280 160h3M283 161h1M287 163h2M289 164h1M290 165h1" />
<path stroke="#7ac1cb" d="M302 114h1M303 115h2M312 115h1M303 116h2M310 116h1M312 116h1M314 116h1M301 117h1M304 117h1M310 117h4M301 118h1M304 118h1M309 118h5M309 119h1M312 119h1M314 119h2M309 120h3M313 120h1M315 120h1M309 121h2M312 121h1M314 121h2M309 122h3M314 122h1M309 123h3M314 123h1M304 124h1M309 125h1M309 126h1M293 130h1M293 131h1M293 132h1M305 134h1M305 135h1M305 136h1M305 137h2M305 138h3M305 139h3" />
<path stroke="#355c8b" d="M316 114h1M316 122h1M316 123h1M306 143h1M307 144h1M360 170h1M357 171h1M359 171h1M356 172h1M356 174h2M357 176h1M358 177h1M360 177h1M359 178h2M362 179h1" />
<path stroke="rgba(48,81,130,0.8156862745098039)" d="M317 114h1" />
<path stroke="#609ab1" d="M301 115h1M301 116h2M302 117h2M314 117h1M303 118h1M314 118h1M304 119h1M313 119h1M302 120h1M312 120h1M314 120h1M304 121h1M311 121h1M313 121h1M304 122h1M312 122h1M304 123h1M312 123h1M309 124h1" />
<path stroke="#356495" d="M317 115h1M300 119h1M301 120h1M301 124h1M313 124h1M302 125h1M314 126h1M303 127h1M313 127h1M303 128h1M312 128h2M312 129h2M301 130h1M311 132h3M311 133h3M311 134h1M311 135h1M311 136h1M310 137h1M310 140h1M305 141h1M305 142h2M309 143h1M311 143h1M312 144h1M309 145h1" />
<path stroke="#3b7bac" d="M300 117h1M311 129h1M308 140h1" />
<path stroke="#34578a" d="M307 117h2M307 118h1M306 119h1M308 121h1M308 122h1M308 123h1M307 130h1M308 138h1M308 139h1" />
<path stroke="#3f6791" d="M302 118h1M302 119h1M303 120h1M304 127h1M304 130h1" />
<path stroke="#335588" d="M306 118h1M307 120h1" />
<path stroke="#467298" d="M301 119h1M302 121h2M303 122h1M303 123h1M304 128h1M304 129h1M301 131h1" />
<path stroke="#346091" d="M319 120h2M294 121h1M320 121h2M294 122h1M321 122h1M294 123h1M321 123h1M294 124h2M321 124h1M294 125h2M320 125h2M294 126h2M295 127h2M295 128h2M292 129h1M295 129h1M321 132h1" />
<path stroke="#90f2ee" d="M298 121h2M300 122h1M317 122h1M300 123h1M317 123h1M300 124h1M315 124h2M315 125h1M298 126h2M316 126h1M313 134h1M312 135h1M305 143h1M313 151h1M280 153h3M281 154h1M281 155h1M365 158h1M362 159h1M365 159h1M362 160h1M366 160h1M363 161h1M282 164h1M283 165h1M278 166h2M281 166h1M297 168h1M294 171h1M294 172h1" />
<path stroke="#335b8c" d="M319 121h1M320 122h1M320 123h1M294 128h1M294 129h1" />
<path stroke="#325586" d="M302 122h1M302 123h1M303 124h1M310 124h1M312 124h1M311 125h1M303 126h1M312 126h1M315 126h1M314 127h1M311 128h1M314 128h1M315 149h1M317 151h1M317 152h1" />
<path stroke="#3a608c" d="M315 122h1M315 123h1" />
<path stroke="#477499" d="M318 122h1M318 123h1" />
<path stroke="#7fcdd4" d="M319 122h1M319 123h1M320 124h1M320 126h2M293 127h2M297 127h1M319 127h1M321 127h1M293 128h1M320 128h2M296 129h1M321 129h1M292 130h1M295 130h2M321 130h2M296 131h1M321 131h1" />
<path stroke="#345e8f" d="M302 124h1M312 125h1M311 126h1M302 127h1M310 127h2M301 128h2M301 129h3M302 130h2M302 131h2M303 132h2M310 132h1M303 133h2M310 133h1M310 134h1M304 135h1M304 136h1M304 137h1M305 140h1" />
<path stroke="#366495" d="M311 124h1" />
<path stroke="#325788" d="M314 124h1M303 125h1M310 125h1M313 125h2M310 126h1M312 127h1M312 131h1M310 135h1M310 136h1M308 143h1M360 165h1" />
<path stroke="#9ef9ef" d="M318 124h1" />
<path stroke="#63a1b7" d="M319 124h1M294 130h1M292 131h1M294 131h1" />
<path stroke="#7ec9cf" d="M297 125h1M297 126h1" />
<path stroke="#487a9f" d="M301 125h1" />
<path stroke="#447096" d="M304 125h1M301 126h1M304 126h1" />
<path stroke="rgba(162,255,243,0.9725490196078431)" d="M318 125h1" />
<path stroke="#72b6c3" d="M319 125h1" />
<path stroke="rgba(48,82,130,0.7843137254901961)" d="M293 126h1M294 132h1" />
<path stroke="#406c95" d="M302 126h1M301 127h1" />
<path stroke="rgba(162,255,243,0.9058823529411765)" d="M317 126h1M320 130h1" />
<path stroke="#639fb4" d="M319 126h1" />
<path stroke="rgba(137,217,218,0.9215686274509803)" d="M298 127h2M300 129h1M304 141h1" />
<path stroke="#86d9db" d="M300 127h1M314 133h1M302 138h1M302 139h1M306 144h1M307 145h1M308 146h1" />
<path stroke="#609aae" d="M309 127h1M309 131h1" />
<path stroke="#4e7fa1" d="M315 127h1M315 128h1M315 129h1M312 130h1M314 130h2M313 131h2M314 132h1" />
<path stroke="#97efe9" d="M320 127h1M297 128h1M296 132h1" />
<path stroke="rgba(163,255,243,0.7254901960784313)" d="M298 128h2M300 130h1M312 136h1M311 140h1M311 141h1M312 142h1M313 143h1M314 144h1M314 145h1" />
<path stroke="#84d4d9" d="M300 128h1M310 138h1M310 139h1M304 140h1" />
<path stroke="#7ac1c6" d="M309 128h1M309 129h1M309 130h1M309 132h1M309 135h1M309 136h1M308 141h1" />
<path stroke="#5183a1" d="M310 128h1M310 129h1" />
<path stroke="#83dde4" d="M319 128h1M297 130h1M295 131h1" />
<path stroke="rgba(159,250,240,0.9921568627450981)" d="M297 129h1" />
<path stroke="rgba(162,255,243,0.9137254901960784)" d="M298 129h2" />
<path stroke="#395f8b" d="M314 129h1M313 130h1" />
<path stroke="#98f4ee" d="M320 129h1" />
<path stroke="#3f678f" d="M310 130h1" />
<path stroke="#335a8b" d="M304 131h1M304 134h1" />
<path stroke="#467296" d="M310 131h1M309 137h1" />
<path stroke="#446f96" d="M301 132h2M301 133h2M303 134h1M303 135h1" />
<path stroke="rgba(153,241,234,0.9803921568627451)" d="M296 133h1" />
<path stroke="#a2ffeb" d="M309 133h1M309 134h1M309 138h1M309 139h1M309 140h1M308 142h1" />
<path stroke="#4f82a2" d="M301 134h1M301 135h2M302 136h1" />
<path stroke="#447197" d="M302 134h1M303 136h1" />
<path stroke="#8bdcdc" d="M301 136h1M302 137h1" />
<path stroke="#87e1e5" d="M311 137h1" />
<path stroke="#325485" d="M307 143h1" />
<path stroke="#3d729b" d="M308 144h1M290 174h1M296 180h1M295 181h2M293 182h2M300 182h1M299 183h1" />
<path stroke="#325687" d="M309 144h1M309 146h1M311 148h1" />
<path stroke="#345b8a" d="M308 145h1" />
<path stroke="rgba(71,115,152,0.9294117647058824)" d="M314 146h1" />
<path stroke="#315384" d="M311 147h1" />
<path stroke="rgba(48,81,130,0.7490196078431373)" d="M315 147h1M310 148h1M311 149h3" />
<path stroke="#468cb0" d="M316 147h3M319 148h3M321 149h2M324 150h2M318 151h1M309 152h1M309 153h1M316 153h1M309 154h1M316 154h1M309 155h1M311 155h1M315 155h1M310 156h2M315 156h1M320 156h1M310 157h1M314 157h2M314 160h1M311 161h1M313 161h2M313 162h1" />
<path stroke="#4dabcf" d="M319 147h1M322 148h1M323 149h3M308 153h1M308 154h1M307 155h1M315 158h1M312 160h1" />
<path stroke="rgba(65,147,194,0.6274509803921569)" d="M321 147h1" />
<path stroke="#59bdd2" d="M363 147h1M366 147h1M369 148h2M372 149h1M360 150h2M373 150h1M358 152h1" />
<path stroke="#64c5d7" d="M364 147h2M362 148h1" />
<path stroke="#4c7b9e" d="M368 147h2" />
<path stroke="#345a89" d="M314 148h1" />
<path stroke="#4a94b5" d="M315 148h1M319 155h1M310 158h1M313 159h1" />
<path stroke="#4180a9" d="M316 148h3M320 149h1M316 150h2M323 150h1M312 151h1M320 151h1" />
<path stroke="#5bb1c8" d="M363 148h2M366 149h3M370 149h2M359 151h1" />
<path stroke="#7fd2d8" d="M365 148h3M365 149h1" />
<path stroke="#355e8c" d="M314 149h1M313 150h1M312 157h1" />
<path stroke="#5fa2bc" d="M316 149h1M314 150h1M318 150h2M311 151h1M314 151h1M310 152h1M314 152h1M324 152h2M313 153h1M321 153h1M326 153h1M313 154h1M321 154h1M326 154h1M313 155h1M322 155h1M329 155h1M313 156h1M309 157h1M326 157h1M313 158h1M311 160h1M310 161h1M310 162h1M291 175h3M290 176h3M293 177h2M299 177h1M299 181h1" />
<path stroke="#36608e" d="M317 149h1M324 151h2M318 152h1M321 152h1M314 158h1M313 160h1M364 167h1M358 169h1M362 169h1M356 170h1M359 177h1M363 180h1" />
<path stroke="#498aad" d="M318 149h1M319 151h1" />
<path stroke="#3f78a0" d="M319 149h1" />
<path stroke="#7ed5db" d="M364 149h1" />
<path stroke="#54a1bc" d="M369 149h1" />
<path stroke="#4383a8" d="M312 150h1M309 151h2M312 152h2M312 153h1M312 154h1M291 174h3M294 175h3M299 175h1M293 176h3M297 176h2M300 176h1M291 177h2M296 177h3M300 177h1M292 178h2M299 178h1M296 179h6M294 180h2M298 180h2M301 180h1M294 181h1M298 181h1M300 181h2" />
<path stroke="#3c6691" d="M315 150h1M320 150h2M323 151h1M319 152h1M328 155h1M313 157h1M309 158h1M312 159h1" />
<path stroke="#365f8e" d="M322 150h1M320 152h1" />
<path stroke="#4387ad" d="M326 150h1" />
<path stroke="#52b2d8" d="M327 150h1M327 151h2M328 152h1M328 153h1M328 154h1M326 155h1M324 156h3M323 157h3M327 157h1M324 158h2M327 158h1M308 159h1M309 160h1M309 161h1M309 162h1M309 163h1M311 163h2M309 164h1M311 164h1M310 165h1" />
<path stroke="#3971a2" d="M353 150h2M351 151h3M350 152h3M352 153h2" />
<path stroke="#366596" d="M355 150h1M357 150h1M354 151h2M353 152h2M351 154h1M350 156h1M350 157h1M361 164h2M361 165h1M360 166h1M359 167h1" />
<path stroke="#5592af" d="M358 150h1M352 154h1M359 154h1M351 156h1M356 157h1M354 159h1M345 172h1" />
<path stroke="#7ac6d0" d="M362 150h2M357 156h1" />
<path stroke="#88d9db" d="M364 150h3M360 151h2M359 152h3" />
<path stroke="#9af5ed" d="M367 150h1M362 151h1M364 151h2" />
<path stroke="#5c94ae" d="M368 150h1" />
<path stroke="#65a2b7" d="M369 150h1M369 151h1" />
<path stroke="#40749c" d="M370 150h1" />
<path stroke="#4992b2" d="M371 150h1M374 152h2" />
<path stroke="#4f97b5" d="M372 150h1M373 151h1" />
<path stroke="#8cdddd" d="M284 151h1M279 168h1M280 169h1" />
<path stroke="rgba(162,255,243,0.807843137254902)" d="M285 151h2M290 154h1M289 155h1M281 168h2M281 169h1M283 169h1M282 170h2" />
<path stroke="#4485aa" d="M315 151h1M315 152h1M315 153h1M315 154h1M308 155h1M311 157h1M309 159h2M314 159h1M356 168h1M355 169h1M357 170h2M361 170h1M356 171h1M358 171h1M360 171h1M357 172h3M353 173h1M356 173h4M358 174h1M355 175h3M353 176h4M358 176h4M356 177h2M361 177h3M361 178h5M360 179h2M361 180h1M362 181h1" />
<path stroke="#345d8b" d="M316 151h1" />
<path stroke="#355f8d" d="M321 151h2M360 157h1M360 163h1" />
<path stroke="#3f82ab" d="M326 151h1" />
<path stroke="#478bae" d="M329 151h1M362 168h1" />
<path stroke="#345f90" d="M356 151h1" />
<path stroke="#4181aa" d="M357 151h1" />
<path stroke="#65bed0" d="M358 151h1M356 152h2M355 153h2M353 154h2M354 155h1M352 160h1M350 161h1M347 165h1M347 167h1M346 169h1M345 170h1M346 173h1" />
<path stroke="#89dee0" d="M363 151h1" />
<path stroke="#78c0ca" d="M366 151h1" />
<path stroke="#487c9f" d="M367 151h1M363 152h6" />
<path stroke="#3f6b94" d="M368 151h1" />
<path stroke="#4a8bac" d="M370 151h3M374 151h1M373 152h1" />
<path stroke="#5d97b1" d="M375 151h1" />
<path stroke="#355d8c" d="M311 152h1M309 156h1" />
<path stroke="#305885" d="M316 152h1" />
<path stroke="#448db4" d="M322 152h1" />
<path stroke="#448db3" d="M323 152h1M320 153h1M320 154h1" />
<path stroke="#36618f" d="M326 152h1" />
<path stroke="#458fb5" d="M327 152h1M327 155h1" />
<path stroke="#4587ac" d="M329 152h1M327 153h1M327 154h1" />
<path stroke="#5190af" d="M370 152h1" />
<path stroke="#4c85a8" d="M371 152h2" />
<path stroke="#51a7c2" d="M278 153h2M280 157h1M280 158h1M278 163h1M281 165h1M294 167h1M295 168h1M296 169h2M297 172h1M287 174h3M286 175h1M287 176h3M290 177h1M291 178h1M295 182h1M297 182h1M294 183h1M296 183h3M294 184h2M297 184h2M294 185h2" />
<path stroke="#3a79aa" d="M310 153h1M310 154h1" />
<path stroke="#386896" d="M311 153h1M311 154h1" />
<path stroke="#37628f" d="M314 153h1M314 154h1M312 161h1" />
<path stroke="#306a8b" d="M318 153h1M318 154h1" />
<path stroke="#458eb5" d="M319 153h1M319 154h1" />
<path stroke="#36608f" d="M322 153h2M322 154h2" />
<path stroke="#386795" d="M324 153h2M324 154h2M323 155h1M312 162h1" />
<path stroke="#335988" d="M329 153h1M329 154h1M369 159h1" />
<path stroke="#50a6c2" d="M330 153h1M330 154h1M330 156h1M328 157h3M326 158h1M328 158h4" />
<path stroke="#5ba8c5" d="M354 153h1" />
<path stroke="#44759a" d="M359 153h1" />
<path stroke="#5e9bb4" d="M370 153h2M368 154h1M370 154h1M372 157h1" />
<path stroke="#5092b1" d="M372 153h4M371 154h4M370 155h6M370 156h5M371 157h1" />
<path stroke="#fad80c" d="M14 154h4M622 154h4M12 155h8M72 155h4M564 155h4M620 155h8M12 156h2M16 156h5M72 156h4M77 156h1M188 156h4M196 156h1M443 156h1M448 156h4M562 156h1M564 156h4M619 156h5M626 156h2M12 157h2M18 157h3M22 157h2M71 157h1M75 157h4M186 157h2M190 157h1M196 157h2M442 157h2M449 157h1M452 157h2M561 157h4M568 157h1M616 157h2M619 157h3M626 157h2M10 158h1M12 158h1M14 158h1M20 158h3M70 158h1M75 158h1M185 158h1M193 158h2M445 158h2M454 158h1M564 158h1M569 158h1M617 158h3M625 158h1M627 158h1M629 158h1M11 159h1M17 159h1M19 159h1M27 159h2M67 159h2M182 159h1M457 159h1M571 159h2M611 159h2M620 159h1M622 159h1M628 159h1M71 160h1M126 160h14M150 160h23M193 160h6M200 160h60M262 160h1M264 160h1M373 160h3M377 160h1M380 160h60M441 160h6M467 160h23M500 160h14M568 160h1M10 161h1M26 161h1M68 161h1M226 161h14M248 161h12M261 161h4M374 161h5M380 161h12M400 161h14M571 161h1M613 161h1M629 161h1M26 162h1M68 162h1M240 162h4M246 162h13M370 162h2M381 162h13M396 162h4M571 162h1M613 162h1M9 163h1M11 163h1M20 163h1M619 163h1M628 163h1M630 163h1M10 164h2M628 164h2M8 166h1M631 166h1M7 167h1M632 167h1M9 168h1M630 168h1M12 170h1M627 170h1M12 171h1M14 171h1M625 171h1M627 171h1M13 172h2M625 172h2M14 173h1M625 173h1M14 175h1M625 175h1M12 177h1M627 177h1M12 178h1M627 178h1M14 214h1M625 214h1M14 215h1M625 215h1M14 216h1M625 216h1M14 217h1M625 217h1M14 218h1M625 218h1M16 255h1M623 255h1M14 256h1M625 256h1M9 257h3M628 257h3M8 258h1M11 258h4M625 258h4M631 258h1M7 259h1M632 259h1M7 260h1M632 260h1M7 261h1M9 261h1M630 261h1M632 261h1M12 262h1M627 262h1M7 263h1M16 263h1M623 263h1M632 263h1M6 264h3M10 264h1M629 264h1M631 264h3M8 265h4M628 265h4M10 266h1M26 266h10M62 266h1M65 266h1M67 266h1M69 266h3M568 266h3M572 266h1M574 266h1M577 266h1M604 266h10M629 266h1M6 267h2M9 267h1M24 267h5M30 267h2M48 267h9M58 267h5M83 267h11M97 267h13M530 267h13M546 267h11M577 267h5M583 267h9M608 267h2M611 267h5M630 267h1M632 267h2M6 268h1M8 268h2M25 268h4M30 268h1M57 268h1M61 268h2M64 268h1M73 268h3M78 268h19M100 268h10M530 268h10M543 268h19M564 268h3M575 268h1M577 268h2M582 268h1M609 268h1M611 268h4M630 268h2M633 268h1M5 269h1M9 269h2M12 269h1M14 269h1M25 269h2M613 269h2M625 269h1M627 269h1M629 269h2M634 269h1M5 270h1M9 270h3M25 270h3M612 270h3M628 270h3M634 270h1M3 271h1M5 271h1M9 271h2M25 271h3M612 271h3M629 271h2M634 271h1M636 271h1M3 272h3M7 272h2M10 272h1M15 272h1M24 272h2M28 272h1M611 272h1M614 272h2M624 272h1M629 272h1M631 272h2M634 272h3M3 273h1M5 273h6M23 273h2M615 273h2M629 273h6M636 273h1M2 274h2M16 274h1M19 274h5M616 274h5M623 274h1M636 274h2M21 275h1M24 275h1M26 275h1M613 275h1M615 275h1M618 275h1" />
<path stroke="#ffffff" d="M75 154h1M194 154h1M445 154h1M564 154h1M71 155h1M190 155h4M446 155h4M568 155h1M14 156h2M23 156h5M70 156h1M78 156h3M192 156h4M197 156h2M441 156h2M444 156h4M559 156h3M569 156h1M612 156h5M624 156h2M14 157h4M28 157h1M69 157h1M185 157h1M189 157h1M450 157h1M454 157h1M570 157h1M611 157h1M622 157h4M15 158h5M69 158h1M184 158h1M455 158h1M570 158h1M620 158h5M18 159h1M183 159h1M456 159h1M621 159h1M181 160h1M260 160h2M263 160h1M376 160h1M378 160h2M458 160h1M371 161h3M260 162h5M367 162h3M372 162h8M8 163h1M631 163h1M7 164h2M631 164h2M6 165h2M632 165h2M6 166h2M632 166h2M10 167h1M629 167h1M12 172h1M627 172h1M14 174h1M625 174h1M14 254h1M625 254h1M10 255h2M13 255h3M624 255h3M628 255h2M8 256h6M626 256h6M7 257h2M631 257h2M6 258h2M632 258h2M6 259h1M633 259h1M6 260h1M633 260h1M6 263h1M633 263h1M5 264h1M634 264h1M5 265h3M632 265h3M5 266h2M36 266h26M63 266h1M66 266h1M573 266h1M576 266h1M578 266h26M633 266h2M4 267h2M29 267h1M32 267h16M57 267h1M582 267h1M592 267h16M610 267h1M634 267h2M4 268h2M7 268h1M29 268h1M31 268h26M583 268h26M610 268h1M632 268h1M634 268h2M4 269h1M6 269h3M631 269h3M635 269h1M4 270h1M6 270h3M631 270h3M635 270h1M4 271h1M6 271h3M631 271h3M635 271h1M6 272h1M9 272h1M630 272h1M633 272h1M2 273h1M4 273h1M635 273h1M637 273h1M20 276h1M619 276h1" />
<path stroke="#7bc3cd" d="M283 154h5M269 155h1M286 155h1M287 156h1M266 157h3M266 158h2M267 159h1M267 160h1M266 162h1M267 163h1M277 163h1M279 163h1M286 163h1M290 163h2M275 164h5M287 164h1M271 165h1M273 165h2M276 165h1M287 165h2M273 166h1M288 166h4M272 167h1M291 167h1M293 170h1M295 172h1" />
<path stroke="#68afc2" d="M358 154h1" />
<path stroke="#437097" d="M369 154h1M368 155h2M370 158h1" />
<path stroke="#598fab" d="M375 154h1" />
<path stroke="#3c7cad" d="M288 155h1M279 158h1M266 159h1M266 160h1M266 161h1M280 162h3M280 163h1M282 163h4M289 163h1M280 164h2M283 164h4M270 165h1M275 165h1M279 165h1M282 165h1M284 165h3M274 166h2M280 166h1M282 166h6M273 167h2M280 167h5M286 167h5M292 167h1M287 168h2M291 168h3M279 169h1M291 169h3M277 170h1M280 170h1M282 171h1M287 175h1M296 182h1M295 183h1M296 184h1" />
<path stroke="#4d98c0" d="M310 155h1" />
<path stroke="#4282a9" d="M312 155h1M312 156h1M312 158h1" />
<path stroke="#365f8d" d="M314 155h1M314 156h1M363 159h1M360 160h1M364 160h1M356 161h1M358 161h1M355 162h2M353 164h1M351 165h3M351 166h2M350 167h1M352 167h2M352 168h1M349 170h1" />
<path stroke="#438ab2" d="M320 155h1M321 156h1" />
<path stroke="#4ea7cd" d="M321 155h1" />
<path stroke="#396a98" d="M324 155h2M327 156h1" />
<path stroke="#6fb8c7" d="M358 155h1" />
<path stroke="#3c719b" d="M363 155h4M362 156h2M361 157h1M358 158h1M354 161h1M349 166h1M348 167h1" />
<path stroke="#47799e" d="M367 155h1M364 156h4M362 157h3M367 157h1M359 158h2M366 158h2M359 159h1M356 160h2M353 162h2M359 162h1M352 163h1M357 163h3M354 164h2M354 165h1M354 166h1M349 173h1M349 174h1M348 175h1" />
<path stroke="#dfaf00" d="M11 156h1M76 156h1M563 156h1M628 156h1M11 157h1M27 157h1M72 157h1M74 157h1M191 157h1M194 157h2M444 157h2M448 157h1M565 157h1M567 157h1M612 157h1M628 157h1M11 158h1M13 158h1M23 158h1M28 158h1M71 158h1M74 158h1M186 158h1M188 158h3M449 158h3M453 158h1M565 158h1M568 158h1M611 158h1M616 158h1M626 158h1M628 158h1M10 159h1M14 159h3M21 159h1M69 159h2M72 159h1M186 159h2M191 159h1M448 159h1M452 159h2M567 159h1M569 159h2M618 159h1M623 159h3M629 159h1M10 160h1M12 160h1M16 160h4M21 160h2M28 160h27M56 160h12M75 160h51M140 160h7M148 160h2M173 160h8M182 160h1M199 160h1M440 160h1M457 160h1M459 160h8M490 160h2M493 160h7M514 160h51M572 160h12M585 160h27M617 160h2M620 160h4M627 160h1M629 160h1M21 161h1M27 161h26M55 161h1M57 161h5M63 161h3M69 161h1M76 161h58M140 161h8M151 161h26M179 161h3M185 161h1M191 161h8M201 161h25M240 161h8M260 161h1M379 161h1M392 161h8M414 161h25M441 161h8M454 161h1M458 161h3M463 161h26M492 161h8M506 161h58M570 161h1M574 161h3M578 161h5M584 161h1M587 161h26M618 161h1M11 162h1M27 162h1M29 162h15M53 162h4M78 162h21M134 162h17M181 162h1M184 162h1M189 162h9M199 162h2M213 162h10M227 162h13M244 162h2M259 162h1M380 162h1M394 162h2M400 162h13M417 162h10M439 162h2M442 162h9M455 162h1M458 162h1M489 162h17M541 162h21M583 162h4M596 162h15M612 162h1M628 162h1M12 164h2M19 164h1M620 164h1M626 164h2M8 165h1M15 165h2M623 165h2M631 165h1M8 167h1M631 167h1M11 168h2M627 168h2M12 169h2M626 169h2M13 170h1M626 170h1M13 171h1M626 171h1M12 173h2M626 173h2M12 174h2M626 174h2M12 175h2M626 175h2M12 176h3M625 176h3M13 177h2M625 177h2M13 178h2M625 178h2M12 179h3M625 179h3M12 180h2M626 180h2M12 181h2M626 181h2M12 182h1M14 182h1M625 182h1M627 182h1M12 183h1M14 183h1M625 183h1M627 183h1M12 184h1M14 184h1M625 184h1M627 184h1M13 185h2M625 185h2M12 186h3M625 186h3M12 187h3M625 187h3M14 188h1M625 188h1M12 189h2M626 189h2M12 190h3M625 190h3M12 191h3M625 191h3M12 192h2M626 192h2M12 193h2M626 193h2M12 194h1M14 194h1M625 194h1M627 194h1M12 195h1M14 195h1M625 195h1M627 195h1M12 196h2M626 196h2M12 197h2M626 197h2M12 198h3M625 198h3M12 199h3M625 199h3M12 200h3M625 200h3M12 201h3M625 201h3M12 202h3M625 202h3M12 203h3M625 203h3M12 204h3M625 204h3M12 205h3M625 205h3M12 206h2M626 206h2M12 207h3M625 207h3M12 208h1M14 208h1M625 208h1M627 208h1M13 209h2M625 209h2M13 210h2M625 210h2M13 211h2M625 211h2M13 212h2M625 212h2M13 213h2M625 213h2M13 214h1M626 214h1M12 215h1M627 215h1M13 216h1M626 216h1M12 217h2M626 217h2M12 218h2M626 218h2M12 219h3M625 219h3M12 220h3M625 220h3M12 221h3M625 221h3M12 222h3M625 222h3M12 223h3M625 223h3M12 224h3M625 224h3M12 225h3M625 225h3M12 226h3M625 226h3M13 227h2M625 227h2M13 228h2M625 228h2M13 229h2M625 229h2M13 230h2M625 230h2M13 231h2M625 231h2M13 232h2M625 232h2M12 233h1M14 233h1M625 233h1M627 233h1M12 234h2M626 234h2M12 235h3M625 235h3M12 236h3M625 236h3M12 237h3M625 237h3M12 238h3M625 238h3M12 239h3M625 239h3M12 240h3M625 240h3M12 241h3M625 241h3M12 242h3M625 242h3M12 243h3M625 243h3M12 244h3M625 244h3M12 245h3M625 245h3M12 246h3M625 246h3M12 247h3M625 247h3M12 248h3M625 248h3M12 249h3M625 249h3M12 250h3M625 250h3M12 251h3M625 251h3M12 252h3M625 252h3M12 253h3M625 253h3M13 254h1M626 254h1M15 256h2M623 256h2M12 257h4M624 257h4M9 258h2M629 258h2M8 259h1M631 259h1M7 262h5M628 262h5M8 263h2M630 263h2M9 264h1M11 264h2M17 264h1M622 264h1M627 264h2M630 264h1M13 265h1M626 265h1M7 266h3M11 266h4M17 266h1M64 266h1M68 266h1M72 266h11M84 266h8M94 266h20M119 266h6M126 266h16M143 266h5M149 266h12M163 266h1M165 266h9M176 266h5M183 266h15M199 266h1M201 266h1M215 266h8M224 266h2M233 266h1M236 266h25M262 266h3M276 266h10M288 266h2M291 266h1M302 266h1M308 266h1M310 266h1M312 266h7M321 266h7M329 266h1M331 266h1M337 266h1M348 266h1M350 266h2M354 266h10M375 266h3M379 266h25M406 266h1M414 266h2M417 266h8M438 266h1M440 266h1M442 266h15M459 266h5M466 266h9M476 266h1M479 266h12M492 266h5M498 266h16M515 266h6M526 266h20M548 266h8M557 266h11M571 266h1M575 266h1M622 266h1M625 266h4M630 266h3M8 267h1M10 267h5M63 267h2M66 267h12M82 267h1M94 267h3M110 267h2M114 267h12M128 267h15M144 267h3M148 267h15M165 267h8M174 267h6M183 267h16M200 267h1M203 267h1M211 267h10M223 267h2M226 267h3M230 267h3M237 267h25M266 267h9M281 267h4M286 267h4M293 267h6M300 267h10M311 267h7M322 267h7M330 267h10M341 267h6M350 267h4M355 267h4M365 267h9M378 267h25M407 267h3M411 267h3M415 267h2M419 267h10M436 267h1M439 267h1M441 267h16M460 267h6M467 267h8M477 267h15M493 267h3M497 267h15M514 267h12M528 267h2M543 267h3M557 267h1M562 267h12M575 267h2M625 267h5M631 267h1M10 268h6M58 268h3M63 268h1M65 268h1M68 268h5M76 268h2M97 268h3M112 268h16M133 268h11M145 268h2M148 268h16M165 268h6M180 268h2M183 268h17M203 268h1M207 268h1M212 268h6M221 268h3M225 268h4M230 268h1M233 268h4M241 268h19M262 268h16M280 268h1M282 268h2M285 268h2M290 268h1M292 268h8M318 268h1M321 268h1M340 268h8M349 268h1M353 268h2M356 268h2M359 268h1M362 268h16M380 268h19M403 268h4M409 268h1M411 268h4M416 268h3M422 268h6M432 268h1M436 268h1M440 268h17M458 268h2M469 268h6M476 268h16M493 268h2M496 268h11M512 268h16M540 268h3M562 268h2M567 268h5M574 268h1M576 268h1M579 268h3M624 268h6M11 269h1M13 269h1M15 269h2M623 269h2M626 269h1M628 269h1M12 270h4M624 270h4M11 271h4M28 271h1M611 271h1M625 271h4M11 272h3M16 272h1M18 272h1M26 272h2M612 272h2M621 272h1M623 272h1M626 272h3M11 273h2M15 273h1M17 273h2M25 273h2M613 273h2M621 273h2M624 273h1M627 273h2M4 274h8M14 274h1M17 274h2M24 274h2M27 274h1M612 274h1M614 274h2M621 274h2M625 274h1M628 274h8M2 275h1M11 275h1M16 275h4M22 275h2M25 275h1M614 275h1M616 275h2M620 275h4M628 275h1M637 275h1M21 276h1M618 276h1" />
<path stroke="#4ea8cd" d="M308 156h1M308 158h1M311 159h1M310 160h1M311 162h1" />
<path stroke="#4288ae" d="M322 156h2" />
<path stroke="#396793" d="M329 156h1M331 157h1M354 171h2M354 172h2M354 173h1M353 174h2M353 175h1" />
<path stroke="#8ee1e0" d="M356 156h1" />
<path stroke="#4f84a4" d="M368 156h1" />
<path stroke="#3c648f" d="M369 156h1" />
<path stroke="#c47102" d="M24 157h3M193 157h1M446 157h1M613 157h3M27 158h1M72 158h2M187 158h1M452 158h1M566 158h2M612 158h1M12 159h2M20 159h1M22 159h1M71 159h1M184 159h2M192 159h1M447 159h1M454 159h2M568 159h1M617 159h1M619 159h1M626 159h2M13 160h3M20 160h1M27 160h1M55 160h1M68 160h3M147 160h1M183 160h1M186 160h2M452 160h2M456 160h1M492 160h1M569 160h3M584 160h1M612 160h1M619 160h1M624 160h3M11 161h1M17 161h1M20 161h1M53 161h2M56 161h1M62 161h1M66 161h1M134 161h6M148 161h3M177 161h2M184 161h1M199 161h2M439 161h2M455 161h1M461 161h2M489 161h3M500 161h6M573 161h1M577 161h1M583 161h1M585 161h2M619 161h1M622 161h1M628 161h1M12 162h1M17 162h2M20 162h1M44 162h9M57 162h3M62 162h6M99 162h35M151 162h23M175 162h1M180 162h1M182 162h2M198 162h1M201 162h12M223 162h4M413 162h4M427 162h12M441 162h1M456 162h2M459 162h1M464 162h1M466 162h23M506 162h35M572 162h6M580 162h3M587 162h9M619 162h1M621 162h2M627 162h1M10 163h1M12 163h2M15 163h4M621 163h4M626 163h2M629 163h1M9 164h1M14 164h1M16 164h3M621 164h3M625 164h1M630 164h1M14 165h1M17 165h1M622 165h1M625 165h1M9 166h1M630 166h1M9 167h1M11 167h1M628 167h1M630 167h1M10 168h1M629 168h1M11 169h1M628 169h1M14 180h1M625 180h1M14 181h1M625 181h1M13 182h1M626 182h1M13 183h1M626 183h1M13 184h1M626 184h1M12 185h1M627 185h1M12 188h2M626 188h2M14 189h1M625 189h1M14 192h1M625 192h1M14 193h1M625 193h1M13 194h1M626 194h1M13 195h1M626 195h1M14 196h1M625 196h1M14 197h1M625 197h1M14 206h1M625 206h1M13 208h1M626 208h1M12 209h1M627 209h1M12 210h1M627 210h1M12 211h1M627 211h1M12 212h1M627 212h1M12 213h1M627 213h1M12 214h1M627 214h1M13 215h1M626 215h1M12 216h1M627 216h1M12 227h1M627 227h1M12 228h1M627 228h1M12 229h1M627 229h1M12 230h1M627 230h1M12 231h1M627 231h1M12 232h1M627 232h1M13 233h1M626 233h1M14 234h1M625 234h1M8 261h1M631 261h1M10 263h5M625 263h5M13 264h4M623 264h4M12 265h1M14 265h4M622 265h4M627 265h1M15 266h2M83 266h1M92 266h2M114 266h5M125 266h1M142 266h1M148 266h1M161 266h2M164 266h1M174 266h2M181 266h1M198 266h1M200 266h1M202 266h1M204 266h11M223 266h1M226 266h3M230 266h3M234 266h2M261 266h1M265 266h1M267 266h1M275 266h1M286 266h2M290 266h1M292 266h1M294 266h8M303 266h5M309 266h1M311 266h1M319 266h2M328 266h1M330 266h1M332 266h5M338 266h8M347 266h1M349 266h1M352 266h2M364 266h1M372 266h1M374 266h1M378 266h1M404 266h2M407 266h3M411 266h3M416 266h1M425 266h11M437 266h1M439 266h1M441 266h1M458 266h1M464 266h2M475 266h1M477 266h2M491 266h1M497 266h1M514 266h1M521 266h5M546 266h2M556 266h1M623 266h2M15 267h3M65 267h1M78 267h4M112 267h2M126 267h2M143 267h1M147 267h1M163 267h2M173 267h1M180 267h3M199 267h1M201 267h2M205 267h6M221 267h2M225 267h1M229 267h1M234 267h3M265 267h1M275 267h1M278 267h3M285 267h1M291 267h2M299 267h1M310 267h1M318 267h4M329 267h1M340 267h1M347 267h2M354 267h1M359 267h3M364 267h1M374 267h1M403 267h3M410 267h1M414 267h1M417 267h2M429 267h6M437 267h2M440 267h1M457 267h3M466 267h1M475 267h2M492 267h1M496 267h1M512 267h2M526 267h2M558 267h4M574 267h1M622 267h3M16 268h2M66 268h2M110 268h2M128 268h5M144 268h1M147 268h1M171 268h9M182 268h1M200 268h3M204 268h3M208 268h4M218 268h3M224 268h1M229 268h1M231 268h2M237 268h4M260 268h2M278 268h2M281 268h1M284 268h1M287 268h3M291 268h1M300 268h18M319 268h2M322 268h18M348 268h1M350 268h3M355 268h1M358 268h1M360 268h2M378 268h2M399 268h4M407 268h2M410 268h1M415 268h1M419 268h3M428 268h4M433 268h3M437 268h3M457 268h1M460 268h9M492 268h1M495 268h1M507 268h5M528 268h2M572 268h2M622 268h2M17 269h1M622 269h1M16 270h2M622 270h2M15 271h3M622 271h3M14 272h1M17 272h1M622 272h1M625 272h1M13 273h2M16 273h1M27 273h1M612 273h1M623 273h1M625 273h2M12 274h2M15 274h1M26 274h1M613 274h1M624 274h1M626 274h2M3 275h8M12 275h4M20 275h1M619 275h1M624 275h4M629 275h8M22 276h3M615 276h3" />
<path stroke="#a45f04" d="M192 157h1M447 157h1M188 159h3M449 159h3M11 160h1M184 160h2M454 160h2M628 160h1M12 161h2M15 161h2M18 161h2M67 161h1M182 161h1M457 161h1M572 161h1M620 161h2M623 161h2M626 161h2M13 162h4M19 162h1M28 162h1M60 162h2M174 162h1M176 162h1M463 162h1M465 162h1M578 162h2M611 162h1M620 162h1M623 162h4M14 163h1M19 163h1M620 163h1M625 163h1M15 164h1M624 164h1M182 266h1M203 266h1M229 266h1M266 266h1M268 266h7M293 266h1M346 266h1M365 266h7M373 266h1M410 266h1M436 266h1M457 266h1M204 267h1M233 267h1M262 267h3M276 267h2M290 267h1M349 267h1M362 267h2M375 267h3M406 267h1M435 267h1M164 268h1M475 268h1" />
<path stroke="#4faace" d="M308 157h1" />
<path stroke="#4d7d9f" d="M332 157h1" />
<path stroke="#7ccdd5" d="M351 157h1M350 158h1M354 158h1M350 159h1M353 159h1M348 160h1M348 161h1M349 162h1M345 168h1" />
<path stroke="#3e6e97" d="M365 157h1M349 172h1M348 174h1M349 175h1" />
<path stroke="#3a628e" d="M366 157h1M361 158h3M358 162h1M355 163h1M353 166h1M349 168h1M348 170h1" />
<path stroke="#528cab" d="M368 157h1" />
<path stroke="#3e6c96" d="M369 157h1" />
<path stroke="#3c6893" d="M370 157h1" />
<path stroke="#4484a9" d="M311 158h1" />
<path stroke="rgba(67,130,169,0.5686274509803921)" d="M323 158h1" />
<path stroke="#365d8b" d="M364 158h1M348 173h1" />
<path stroke="#3d739c" d="M368 158h1M360 159h2M364 159h1M366 159h3M358 160h2M361 160h1M363 160h1M365 160h1M367 160h1M369 160h1M355 161h1M357 161h1M359 161h4M357 162h1M360 162h3M353 163h2M352 164h1M350 166h1M349 169h1" />
<path stroke="#37628e" d="M369 158h1" />
<path stroke="#436f96" d="M371 158h1" />
<path stroke="#355987" d="M372 158h1" />
<path stroke="#60a3ba" d="M349 159h1" />
<path stroke="#335787" d="M358 159h1M364 161h2M351 167h1M350 168h1M350 169h1" />
<path stroke="#467ea2" d="M370 159h1" />
<path stroke="#385e8b" d="M371 159h1" />
<path stroke="#355d8b" d="M368 160h1M351 168h1M351 169h1M349 171h1M348 172h1" />
<path stroke="#7b4701" d="M14 161h1M625 161h1M177 162h3M460 162h3" />
<path stroke="rgba(48,81,130,0.7019607843137254)" d="M347 161h1M346 162h2" />
<path stroke="#629cb4" d="M267 162h1M294 170h1M295 171h1M296 172h1" />
<path stroke="#4ca6d4" d="M310 163h1M310 164h1" />
<path stroke="#68b3c6" d="M356 163h1" />
<path stroke="rgba(55,97,143,0.8470588235294118)" d="M356 164h2" />
<path stroke="#468aac" d="M280 165h1M295 170h1M296 171h1" />
<path stroke="#4fa3c0" d="M350 165h1" />
<path stroke="#386e9f" d="M276 166h2M294 169h1M296 170h1" />
<path stroke="#3f78a1" d="M359 166h1" />
<path stroke="rgba(49,81,130,0.34509803921568627)" d="M271 167h1M292 170h1M290 178h1" />
<path stroke="#4c9ab9" d="M357 167h1M355 168h1M357 168h1M359 168h1M356 169h1M360 169h2M355 170h1M359 170h1M362 170h4M361 171h2M360 172h1M362 180h1M364 182h1" />
<path stroke="#4389b1" d="M360 167h1" />
<path stroke="#7fd6dc" d="M362 167h2M363 168h1M365 168h1M364 169h1M366 180h1M363 181h1" />
<path stroke="#8feae9" d="M280 168h1M281 170h1" />
<path stroke="#3a6c96" d="M360 168h1M359 169h1" />
<path stroke="#416d95" d="M361 168h1M364 168h1M363 169h1M364 179h1M364 180h2" />
<path stroke="#67b7ca" d="M345 169h1" />
<path stroke="#5f98b1" d="M348 169h1" />
<path stroke="rgba(69,132,171,0.6274509803921569)" d="M352 169h1" />
<path stroke="#427198" d="M365 169h1" />
<path stroke="#88edec" d="M366 169h1" />
<path stroke="#9efaf0" d="M278 170h2M279 171h2" />
<path stroke="#4487aa" d="M350 170h1M354 170h1M351 176h1M349 177h2M353 177h1" />
<path stroke="#376c9d" d="M352 170h1" />
<path stroke="#8ee5e5" d="M278 171h1M282 172h1" />
<path stroke="#335686" d="M348 171h1M355 173h1M355 174h1" />
<path stroke="rgba(47,81,130,0.592156862745098)" d="M351 174h1" />
<path stroke="#62adc7" d="M288 175h1" />
<path stroke="#5e9db7" d="M289 175h1M297 180h1" />
<path stroke="#67b2c4" d="M290 175h1M299 182h1" />
<path stroke="#376a9b" d="M297 175h2M296 176h1M299 176h1M295 177h1M298 178h1M300 178h1" />
<path stroke="#325484" d="M354 175h1" />
<path stroke="#396893" d="M350 176h1M352 176h1M351 177h1" />
<path stroke="#6fc8d4" d="M287 177h3" />
<path stroke="#406b94" d="M363 179h1" />
<path stroke="#7cced6" d="M365 179h1" />
<path stroke="#65bbd5" d="M300 180h1" />
<path stroke="rgba(68,133,170,0.7372549019607844)" d="M360 180h1" />
<path stroke="#356293" d="M297 181h1M298 182h1" />
<path stroke="#8ae3e3" d="M364 181h5M368 182h1" />
<path stroke="rgba(49,81,130,0.615686274509804)" d="M301 182h1" />
</svg>